<?xml version="1.0" encoding="UTF-8"?>
<svg version="1.1" xmlns="http://www.w3.org/2000/svg" width="1024" height="1024">
<path d="M0 0 C337.92 0 675.84 0 1024 0 C1024 337.92 1024 675.84 1024 1024 C686.08 1024 348.16 1024 0 1024 C0 686.08 0 348.16 0 0 Z " fill="#FEFEFE" transform="translate(0,0)"/>
<path d="M0 0 C2.24813593 -0.00406959 4.49626986 -0.00941363 6.74440002 -0.01593018 C12.82705523 -0.02956421 18.90955716 -0.02432102 24.99221492 -0.01479292 C31.37140602 -0.00717512 37.75058436 -0.0142479 44.129776 -0.01895142 C55.52708504 -0.02475198 66.92430952 -0.01545282 78.32160426 -0.0001734 C88.63468463 0.01322502 98.94766365 0.01090239 109.26074219 -0.00292969 C121.2635491 -0.01902074 133.26627957 -0.02494066 145.2691012 -0.0160929 C151.61301356 -0.01142765 157.95685626 -0.01075983 164.30076408 -0.02070236 C170.26723706 -0.02940079 176.23351963 -0.02329755 182.19997215 -0.00601959 C184.38317805 -0.00206993 186.5664001 -0.00316258 188.74959946 -0.00980759 C206.22498592 -0.05807273 222.5953298 0.98095367 236.14086914 13.51708984 C249.72668677 28.58099411 250.42194782 44.16855091 250.34594727 63.50537109 C250.35137503 65.8309981 250.35850135 68.15662166 250.3671875 70.48223877 C250.38534571 76.76735191 250.37838424 83.05220095 250.36567116 89.33731842 C250.35653698 95.26253993 250.3635288 101.18772958 250.36937994 107.11295199 C250.38075668 119.56321799 250.36771786 132.01336573 250.34617847 144.46361232 C250.3283101 155.12147128 250.33141503 165.7791559 250.34985352 176.43701172 C250.37131182 188.84600501 250.37965832 201.25489493 250.36740446 213.66390419 C250.36118633 220.22078254 250.36028765 226.77754109 250.37355042 233.33441162 C250.38515262 239.50041332 250.3770032 245.6660876 250.35397339 251.83205414 C250.34870964 254.08740446 250.35015977 256.3427826 250.35902405 258.59812164 C250.41511133 274.32507881 249.90387907 287.49153088 239.82836914 300.38818359 C239.2109082 301.22220703 238.59344727 302.05623047 237.95727539 302.91552734 C230.63954815 311.41483256 218.71766078 315.91306356 207.82836914 317.38818359 C204.71656654 317.53184386 201.60858684 317.53174423 198.49386597 317.52862549 C197.56207272 317.53159661 196.63027947 317.53456773 195.67025006 317.53762889 C192.5522116 317.54629093 189.43421164 317.54782203 186.31616211 317.54931641 C184.07861754 317.55394638 181.84107375 317.55897128 179.60353088 317.56436157 C173.52682827 317.57747108 167.45013669 317.58392781 161.37342215 317.58837223 C157.57450939 317.59130554 153.77559963 317.59541086 149.97668839 317.5998764 C139.44567716 317.61198249 128.9146677 317.62236524 118.38364983 317.6257515 C117.71029632 317.62597106 117.03694281 317.62619063 116.34318466 317.62641685 C115.66827568 317.62663512 114.9933667 317.6268534 114.29800594 317.62707829 C112.93052284 317.62752175 111.56303974 317.62796831 110.19555664 317.62841797 C109.51724659 317.6286394 108.83893654 317.62886083 108.14007165 317.62908897 C97.15866745 317.63303369 86.17732974 317.65047933 75.19595121 317.67377749 C63.90461834 317.69753861 52.61331759 317.70969797 41.3219558 317.71111941 C34.98913303 317.71216597 28.65640407 317.71804206 22.32360458 317.73593903 C16.36296386 317.75245669 10.40248709 317.7545572 4.44183159 317.74580002 C2.26023481 317.7450316 0.07862907 317.74934642 -2.10294533 317.75925827 C-19.80450566 317.83493496 -35.89016454 316.68593017 -49.61694336 304.07568359 C-56.44588588 296.66336407 -62.2759536 286.39843753 -62.30864525 276.12166691 C-62.31371979 275.27177128 -62.31879433 274.42187565 -62.32402265 273.54622561 C-62.32452041 272.61735315 -62.32501817 271.68848068 -62.32553101 270.73146057 C-62.32991326 269.74082845 -62.33429551 268.75019633 -62.33881056 267.72954506 C-62.35219616 264.40034257 -62.35837698 261.07116656 -62.36450195 257.74194336 C-62.37240326 255.35853455 -62.38067223 252.97512694 -62.38928223 250.59172058 C-62.41323966 243.43123807 -62.42843198 236.27075032 -62.44134229 229.11024109 C-62.44505641 227.08610078 -62.44902948 225.06196116 -62.45309496 223.03782153 C-62.47833827 210.45597725 -62.50038159 197.87413182 -62.5128231 185.2922678 C-62.5157526 182.37900857 -62.51871428 179.46574938 -62.52172852 176.55249023 C-62.52247457 175.82845227 -62.52322062 175.10441431 -62.52398928 174.3584358 C-62.53662828 162.64358553 -62.56983262 150.92888753 -62.61153035 139.21410836 C-62.65403416 127.17363583 -62.67752802 115.13324106 -62.68274367 103.09269375 C-62.68614869 96.33776469 -62.69779547 89.5830734 -62.73084641 82.82821846 C-62.7609885 76.46781399 -62.76721656 70.10782285 -62.75546265 63.74736214 C-62.75524241 61.41943316 -62.76350547 59.09148466 -62.78111649 56.76362228 C-62.90395884 39.58356881 -61.81283945 26.31082911 -49.17163086 13.38818359 C-34.7571305 0.42912793 -18.44655207 -0.0560889 0 0 Z " fill="#108AFA" transform="translate(405.171630859375,225.61181640625)"/>
<path d="M0 0 C11.07828221 0.47141626 19.5944078 3.77013781 28 11 C28.60714844 11.48984375 29.21429687 11.9796875 29.83984375 12.484375 C36.46871824 18.34447411 41.55935613 28.08687231 42.12880117 37.02072233 C42.13058974 37.74121954 42.13237831 38.46171675 42.13422108 39.2040472 C42.13867892 40.04000925 42.14313676 40.8759713 42.14772969 41.73726553 C42.14745315 43.10722853 42.14745315 43.10722853 42.14717102 44.50486755 C42.15084771 45.47916546 42.1545244 46.45346337 42.1583125 47.45728546 C42.16935012 50.73121319 42.17319337 54.00510918 42.17700195 57.27905273 C42.18326668 59.62305299 42.18991349 61.96705225 42.19691467 64.31105042 C42.21796111 72.01855782 42.22831945 79.72606543 42.23828125 87.43359375 C42.24232896 90.08805921 42.24644589 92.74252457 42.25063133 95.39698982 C42.26764434 106.44175987 42.28213587 117.48652894 42.28938007 128.53131008 C42.29128983 131.39644306 42.29321018 134.26157603 42.29516602 137.12670898 C42.29564976 137.83878449 42.2961335 138.55085999 42.2966319 139.28451354 C42.30492231 150.80534343 42.33024212 162.32606915 42.36274669 173.84685361 C42.39588248 185.68844503 42.41383484 197.52998366 42.41702431 209.37162167 C42.41918375 216.0147226 42.4282962 222.65768914 42.45348549 229.30074883 C42.4768205 235.55605495 42.4809774 241.81108881 42.47072411 248.06642723 C42.47022992 250.35564837 42.47651563 252.64488315 42.49028015 254.93406296 C42.591509 272.77564749 41.40895398 287.0158297 28.75 300.6875 C19.170511 309.76169728 7.91459517 313.47631813 -5.08799744 313.38768005 C-6.05249882 313.39306559 -7.0170002 313.39845113 -8.0107289 313.40399987 C-11.21553754 313.41821142 -14.41992916 313.41119252 -17.62475586 313.40405273 C-19.93348012 313.40975983 -22.24220156 313.4167254 -24.55091858 313.42485046 C-30.80297258 313.44275878 -37.05488604 313.44161788 -43.30695796 313.43590808 C-48.53307843 313.43281306 -53.75917204 313.43891213 -58.98528868 313.44494683 C-72.02124787 313.45978426 -85.05712832 313.456185 -98.0930872 313.44408352 C-109.395038 313.43415183 -120.69682507 313.44709427 -131.99875062 313.47101771 C-143.6258372 313.49544255 -155.25284083 313.50460922 -166.87995249 313.49836498 C-173.39881448 313.49499825 -179.9175412 313.49739195 -186.4363842 313.51461601 C-192.56703381 313.53010825 -198.69737127 313.52610392 -204.82800865 313.50731087 C-207.07291353 313.50363144 -209.31784165 313.5067145 -211.56272507 313.51719666 C-228.79631979 313.59149947 -241.44482733 311.78471218 -254.6875 299.875 C-258.35880203 296.06645303 -264 288.4730547 -264 283 C-262.85754727 282.99761165 -261.71509455 282.99522329 -260.53802204 282.99276257 C-232.71050043 282.93390874 -204.88306498 282.8579895 -177.05563831 282.76428509 C-174.37408784 282.75531412 -171.69253717 282.74640644 -169.01098633 282.73754883 C-168.01125482 282.7342433 -168.01125482 282.7342433 -166.99132671 282.730871 C-156.22042154 282.69556423 -145.44951643 282.67066282 -134.67857496 282.64965298 C-123.61451414 282.62783802 -112.55053027 282.59451395 -101.48653239 282.55129844 C-95.27713493 282.52740558 -89.0678198 282.50865096 -82.85837746 282.50238609 C-77.00692982 282.49631751 -71.15569273 282.47625339 -65.3043232 282.44572449 C-63.16348485 282.4369727 -61.02261896 282.43321571 -58.88176346 282.43499184 C-42.22981311 282.44444004 -26.47264806 282.07629499 -13.1875 270.5625 C-12.465625 269.716875 -11.74375 268.87125 -11 268 C-10.51015625 267.48824219 -10.0203125 266.97648437 -9.515625 266.44921875 C-1.04540891 257.32906034 1.31661035 246.16320066 1.24723816 234.04293823 C1.25085978 232.58120703 1.25085978 232.58120703 1.25455457 231.08994591 C1.26016954 227.83967996 1.25154507 224.58961246 1.24291992 221.33935547 C1.24399334 219.00311225 1.2459329 216.6668693 1.24867249 214.33062744 C1.25351391 207.99616321 1.24587415 201.66176959 1.23571944 195.3273139 C1.22781981 189.36933131 1.22855732 183.41135436 1.22899476 177.45336749 C1.2294948 165.64940065 1.22034905 153.84546095 1.20581055 142.04150391 C1.19171792 130.59358221 1.1846401 119.1456844 1.18530273 107.69775391 C1.18536267 106.6396378 1.18536267 106.6396378 1.18542381 105.5601456 C1.18548435 104.50383771 1.18548435 104.50383771 1.1855461 103.42619026 C1.18620131 91.0431469 1.18105179 78.66011335 1.17275429 66.27707291 C1.169223 61.00687713 1.16739126 55.73668479 1.16686058 50.46648788 C1.1658564 44.26292833 1.15975359 38.05939386 1.14969444 31.85584259 C1.14677269 29.57820159 1.14554342 27.30055769 1.14612198 25.02291489 C1.14661251 21.91628138 1.14095846 18.8097182 1.13371277 15.70309448 C1.13526137 14.79998279 1.13680997 13.89687111 1.1384055 12.9663924 C1.12129463 8.52974522 0.89711634 4.36759793 0 0 Z " fill="#FEA31A" transform="translate(653,260)"/>
<path d="M0 0 C10.56 0 21.12 0 32 0 C36.50027156 10.12561102 36.50027156 10.12561102 38.07128906 14.18652344 C38.42555969 15.09907898 38.77983032 16.01163452 39.14483643 16.95184326 C39.51469666 17.91132874 39.88455688 18.87081421 40.265625 19.859375 C40.66271667 20.88444153 41.05980835 21.90950806 41.46893311 22.96563721 C42.73137425 26.22628897 43.99067296 29.48814445 45.25 32.75 C46.07923507 34.89200143 46.90866071 37.03392909 47.73828125 39.17578125 C49.76948323 44.42250166 51.79272021 49.67225073 53.81323242 54.9230957 C55.00088961 58.00230646 56.19626169 61.07844152 57.39257812 64.15429688 C58.13171416 66.0663275 58.87065596 67.97843323 59.609375 69.890625 C59.95333313 70.76966492 60.29729126 71.64870483 60.65167236 72.55438232 C60.96223572 73.36175842 61.27279907 74.16913452 61.59277344 75.00097656 C61.86587341 75.70434143 62.13897339 76.4077063 62.42034912 77.13238525 C63 79 63 79 63 82 C63.66 82 64.32 82 65 82 C65.31517578 80.27015869 65.31517578 80.27015869 65.63671875 78.50537109 C67.29448205 71.07994288 70.15041813 64.02387686 72.8125 56.9140625 C73.38818032 55.36484516 73.96345018 53.81547523 74.53833008 52.26596069 C75.73831686 49.03544979 76.94231846 45.80647447 78.14941406 42.57861328 C79.69619643 38.44180321 81.23420135 34.30179634 82.76942444 30.16068459 C83.95374058 26.96830935 85.14193581 23.77738936 86.33139038 20.58692551 C86.90016913 19.06028029 87.46790535 17.53324623 88.03457642 16.00581741 C88.82520725 13.87693501 89.62086791 11.75000204 90.41796875 9.62353516 C90.86938232 8.41380035 91.3207959 7.20406555 91.78588867 5.95767212 C93 3 93 3 95 0 C97.88916016 -0.34057617 97.88916016 -0.34057617 101.5390625 -0.29296875 C103.49199219 -0.2784668 103.49199219 -0.2784668 105.484375 -0.26367188 C106.86458923 -0.23860388 108.24479756 -0.21320902 109.625 -0.1875 C111.01300663 -0.17245517 112.40102867 -0.15876641 113.7890625 -0.14648438 C117.19309509 -0.1110257 120.59635622 -0.06160298 124 0 C125.04650937 3.17498706 124.97705021 4.87701874 123.76269531 7.97509766 C123.46282715 8.75634506 123.16295898 9.53759247 122.85400391 10.34251404 C122.51546387 11.19112503 122.17692383 12.03973602 121.828125 12.9140625 C121.4789502 13.81540421 121.12977539 14.71674591 120.77001953 15.645401 C119.60660331 18.64256811 118.42812979 21.6335894 117.25 24.625 C116.42941424 26.73234253 115.61009925 28.84018029 114.79199219 30.94848633 C113.51004652 34.25164293 112.22725579 37.55444556 110.94049072 40.85572815 C106.70662348 51.72111005 102.57120166 62.62287413 98.44552612 73.5296936 C95.33960993 81.73351436 92.2159813 89.93062132 89.09356689 98.12817383 C88.37450207 100.01651664 87.6558618 101.90502117 86.93768311 103.79370117 C84.99170828 108.91095793 83.03843456 114.02528082 81.07189941 119.13467407 C80.49441644 120.6383417 79.91951057 122.14300232 79.34753418 123.64877319 C72.35118528 142.05309576 64.37609622 157.34841021 45.734375 166.05859375 C39.76722059 168.43862289 33.9429601 169.14920192 27.5625 169.1875 C26.49128906 169.20167969 25.42007813 169.21585938 24.31640625 169.23046875 C20.57945343 168.97077474 17.55853857 168.13819249 14 167 C13.97113016 163.02084841 13.95324594 159.04172347 13.9375 155.0625 C13.92912109 153.92619141 13.92074219 152.78988281 13.91210938 151.61914062 C13.90888672 150.53955078 13.90566406 149.45996094 13.90234375 148.34765625 C13.89710693 147.34742432 13.89187012 146.34719238 13.88647461 145.31665039 C14 143 14 143 15 142 C17.01836012 141.83995382 19.0401542 141.7225184 21.0625 141.625 C28.72463798 141.07950277 35.49730476 139.80013823 41 134 C44.1632399 129.12298323 46.5323964 125.20377457 45.56497192 119.26716614 C44.24145033 113.95602904 41.95583403 108.94079096 39.875 103.890625 C39.33823101 102.57106446 38.80228212 101.25117006 38.26708984 99.93096924 C37.11850917 97.10020301 35.96588999 94.27112791 34.81054688 91.44311523 C32.97914591 86.95545219 31.1669292 82.4602036 29.359375 77.96289062 C29.05382187 77.20270378 28.74826874 76.44251694 28.43345642 75.65929413 C27.81072925 74.10983924 27.18804371 72.56036762 26.56539917 71.01087952 C24.98991484 67.09226168 23.41096445 63.17504168 21.83203125 59.2578125 C21.51770645 58.47791206 21.20338165 57.69801163 20.87953186 56.89447784 C20.24166252 55.31180765 19.60377896 53.72914318 18.96588135 52.14648438 C16.38531468 45.74374381 13.80541555 39.34073424 11.2255249 32.93772125 C10.06151116 30.04899809 8.89729718 27.16035577 7.73254395 24.27193069 C7.20330119 22.95770007 6.67518605 21.64301467 6.14831543 20.32783127 C5.02901875 17.53560491 3.89498905 14.75244701 2.72021484 11.98303223 C2.35234863 11.10852417 1.98448242 10.23401611 1.60546875 9.33300781 C1.13403442 8.23995331 1.13403442 8.23995331 0.65307617 7.12481689 C0 5 0 5 0 0 Z " fill="#042950" transform="translate(706,661)"/>
<path d="M0 0 C1.0108667 0.00491455 2.0217334 0.0098291 3.06323242 0.01489258 C18.09505338 0.24922027 31.533908 3.37561499 42.76171875 13.9453125 C47.58139166 19.50859208 51.1310853 26.03215694 51.25 33.5 C50.8125 37.3125 50.8125 37.3125 49.8125 38.3125 C45.36203548 38.64985051 40.8991052 38.63752275 36.4375 38.6875 C34.5503125 38.74357422 34.5503125 38.74357422 32.625 38.80078125 C30.81902344 38.81818359 30.81902344 38.81818359 28.9765625 38.8359375 C27.31294678 38.8656665 27.31294678 38.8656665 25.61572266 38.89599609 C22.8125 38.3125 22.8125 38.3125 21.04443359 35.94775391 C20.43462646 34.64330322 20.43462646 34.64330322 19.8125 33.3125 C16.42496727 28.45703642 13.79849751 27.00691802 8.125 25.6875 C0.38536531 24.81131494 -7.0962977 24.59878845 -14.1875 28.3125 C-16.33041019 31.52686529 -16.48775791 33.48676609 -16.6484375 37.27734375 C-15.96526222 40.2937363 -14.59109583 41.41114808 -12.1875 43.3125 C-9.40294698 44.45815888 -9.40294698 44.45815888 -6.125 45.1875 C-5.18660278 45.42557373 -5.18660278 45.42557373 -4.22924805 45.66845703 C0.2850001 46.78611064 4.82995184 47.741316 9.3828125 48.6875 C10.55320068 48.93516113 11.72358887 49.18282227 12.92944336 49.43798828 C15.25510923 49.92617934 17.58400662 50.3992969 19.91625977 50.85498047 C31.54375013 53.28688497 41.91700425 57.22202381 48.8125 67.3125 C53.23862053 74.83690491 53.6489154 82.73683867 52.8125 91.3125 C49.86163789 102.26906426 43.74683533 110.05771047 34.1875 116 C18.19548669 124.83769156 -2.1730905 125.913326 -19.67285156 121.14672852 C-30.82717949 117.7768966 -39.79350388 112.2830046 -45.53125 101.875 C-48.26505279 95.93874251 -49.5542942 90.91479568 -49.1875 84.3125 C-47.1875 82.3125 -47.1875 82.3125 -44.48193359 82.08544922 C-43.36125488 82.09592285 -42.24057617 82.10639648 -41.0859375 82.1171875 C-39.87421875 82.12363281 -38.6625 82.13007812 -37.4140625 82.13671875 C-36.14304687 82.15347656 -34.87203125 82.17023438 -33.5625 82.1875 C-32.28375 82.19652344 -31.005 82.20554687 -29.6875 82.21484375 C-26.52064833 82.23847697 -23.35416576 82.27142371 -20.1875 82.3125 C-19.87296875 82.99957031 -19.5584375 83.68664062 -19.234375 84.39453125 C-18.80640625 85.29558594 -18.3784375 86.19664062 -17.9375 87.125 C-17.51984375 88.01832031 -17.1021875 88.91164063 -16.671875 89.83203125 C-14.23605058 93.90242206 -11.08425348 95.79511442 -6.5 96.9609375 C1.72673936 98.21162423 11.35376894 98.54724684 18.8125 94.3125 C20.95541019 91.09813471 21.11275791 89.13823391 21.2734375 85.34765625 C20.5956033 82.35484591 19.17436725 81.2203152 16.8125 79.3125 C9.42564639 75.98321386 1.23414417 74.78771438 -6.6875 73.375 C-20.15011376 70.94268908 -32.53437675 67.52115638 -41.5 56.5 C-47.084161 48.43568029 -48.36687544 40.00832694 -47.1875 30.3125 C-44.59086256 20.51500224 -39.5587017 12.61882935 -30.875 7.2734375 C-20.63882749 1.75909893 -11.52563817 -0.06630004 0 0 Z " fill="#042950" transform="translate(405.1875,658.6875)"/>
<path d="M0 0 C0.65830811 -0.00191345 1.31661621 -0.0038269 1.99487305 -0.00579834 C3.3868854 -0.0071595 4.77891047 -0.00346783 6.17089844 0.00488281 C8.30432589 0.015584 10.43691131 0.00498594 12.5703125 -0.0078125 C13.92187686 -0.00649089 15.2734407 -0.00392847 16.625 0 C18.47544922 0.00338379 18.47544922 0.00338379 20.36328125 0.00683594 C23.3125 0.265625 23.3125 0.265625 25.3125 2.265625 C25.55859566 4.54197884 25.55859566 4.54197884 25.55300903 7.44143677 C25.55575836 8.53802612 25.55850769 9.63461548 25.56134033 10.76443481 C25.55414978 11.97284027 25.54695923 13.18124573 25.53955078 14.42626953 C25.53984283 15.69452576 25.54013489 16.96278198 25.54043579 18.26947021 C25.54101097 21.75276808 25.52923007 25.23592894 25.51528788 28.71919489 C25.50280796 32.35737576 25.50161219 35.99555957 25.49923706 39.63375854 C25.49301421 46.52566955 25.47659256 53.41751732 25.45653808 60.30940044 C25.43420406 68.15451236 25.42319195 75.99962726 25.41314721 83.84476304 C25.392227 99.98508742 25.35703545 116.12534815 25.3125 132.265625 C26.15996796 132.26118378 27.00743591 132.25674255 27.88058472 132.25216675 C35.85609952 132.21213982 43.83158073 132.18166601 51.80717278 132.16200066 C55.90778757 132.15155074 60.00831958 132.13736963 64.10888672 132.11474609 C68.06405581 132.0930606 72.01914511 132.08106548 75.97436905 132.07587051 C77.48549786 132.07216701 78.99662217 132.06493525 80.50771713 132.05416489 C82.61966232 132.03970677 84.73127524 132.03764463 86.84326172 132.03857422 C88.04683319 132.034133 89.25040466 132.02969177 90.490448 132.02511597 C93.3125 132.265625 93.3125 132.265625 95.3125 134.265625 C95.57128906 136.75585938 95.57128906 136.75585938 95.578125 139.859375 C95.58199219 141.52806641 95.58199219 141.52806641 95.5859375 143.23046875 C95.57820313 144.39707031 95.57046875 145.56367187 95.5625 146.765625 C95.57410156 148.51552734 95.57410156 148.51552734 95.5859375 150.30078125 C95.58335937 151.41324219 95.58078125 152.52570313 95.578125 153.671875 C95.57586914 154.69603516 95.57361328 155.72019531 95.57128906 156.77539062 C95.3125 159.265625 95.3125 159.265625 93.3125 161.265625 C91.51025391 161.51730728 91.51025391 161.51730728 89.2890625 161.51959229 C88.44778809 161.52523193 87.60651367 161.53087158 86.73974609 161.53668213 C85.81500488 161.53263367 84.89026367 161.52858521 83.9375 161.52441406 C82.96506348 161.5279187 81.99262695 161.53142334 80.99072266 161.53503418 C77.7645766 161.54386302 74.53864843 161.53799824 71.3125 161.53125 C69.07812457 161.53259632 66.84374942 161.53453657 64.609375 161.53704834 C59.92184669 161.54000117 55.23439448 161.53569684 50.546875 161.52636719 C44.52728212 161.51497261 38.50786758 161.52153123 32.48828125 161.53351212 C27.87303312 161.54072642 23.25782751 161.53844476 18.64257812 161.53325653 C16.42252583 161.53191884 14.20246972 161.53357189 11.98242188 161.53821564 C8.88400996 161.54327379 5.78589007 161.53558059 2.6875 161.52441406 C1.30038818 161.53048676 1.30038818 161.53048676 -0.11474609 161.53668213 C-0.95602051 161.53104248 -1.79729492 161.52540283 -2.6640625 161.51959229 C-3.76355225 161.51846121 -3.76355225 161.51846121 -4.88525391 161.51730728 C-6.6875 161.265625 -6.6875 161.265625 -8.6875 159.265625 C-8.93918228 156.57318878 -8.93918228 156.57318878 -8.94146729 153.07824707 C-8.94614726 152.11612391 -8.94614726 152.11612391 -8.95092177 151.13456392 C-8.95892756 148.97568474 -8.95256828 146.81708463 -8.94628906 144.65820312 C-8.94899779 143.11437311 -8.95255805 141.5705444 -8.95690918 140.02671814 C-8.9660496 135.82639096 -8.96248216 131.62616171 -8.95615101 127.42583275 C-8.95109954 123.03718164 -8.95578008 118.64853912 -8.95892334 114.2598877 C-8.96256548 106.88890065 -8.95775739 99.51795363 -8.94824219 92.14697266 C-8.93735716 83.61615494 -8.94088256 75.08543281 -8.951895 66.5546174 C-8.96096082 59.23994835 -8.96225661 51.92530813 -8.95701766 44.61063528 C-8.95389407 40.23764573 -8.95349924 35.86470116 -8.96009064 31.49171448 C-8.96585325 27.38119071 -8.96188722 23.27079059 -8.95030212 19.16028023 C-8.94764971 17.64854195 -8.94843049 16.13679333 -8.95282745 14.62505913 C-8.95826161 12.5675649 -8.95147525 10.51047136 -8.94146729 8.45300293 C-8.94071323 7.29967216 -8.93995918 6.1463414 -8.93918228 4.95806122 C-8.40889722 -0.7148002 -4.80121039 0.00877964 0 0 Z " fill="#042A51" transform="translate(193.6875,617.734375)"/>
<path d="M0 0 C1.0415625 -0.01611328 2.083125 -0.03222656 3.15625 -0.04882812 C9.49010071 -0.05282677 14.24236115 0.63058096 20 3.3125 C21.58937556 4.90187556 21.12981143 6.55149846 21.1328125 8.75 C21.13410156 9.64460937 21.13539063 10.53921875 21.13671875 11.4609375 C21.13285156 12.40195312 21.12898437 13.34296875 21.125 14.3125 C21.12886719 15.25351562 21.13273438 16.19453125 21.13671875 17.1640625 C21.13542969 18.05867187 21.13414062 18.95328125 21.1328125 19.875 C21.13168457 20.70128906 21.13055664 21.52757812 21.12939453 22.37890625 C21 24.3125 21 24.3125 20 25.3125 C18.60331771 25.35085497 17.20472669 25.32435209 15.80859375 25.26953125 C14.94556641 25.24826172 14.08253906 25.22699219 13.19335938 25.20507812 C11.38305707 25.15247544 9.5730587 25.08774504 7.76367188 25.00976562 C1.72471836 24.88925436 -3.1013415 25.54656434 -8 29.3125 C-10.4192256 33.10951986 -10.37655621 37.19441913 -10.625 41.625 C-10.75 43.85416667 -10.875 46.08333333 -11 48.3125 C-10.15703369 48.30726318 -9.31406738 48.30202637 -8.44555664 48.29663086 C-5.32772064 48.27962174 -2.20990823 48.26706594 0.90795898 48.25756836 C2.25920386 48.25252943 3.61044326 48.24569823 4.96166992 48.23706055 C6.90020434 48.22497581 8.838778 48.21980172 10.77734375 48.21484375 C12.52905884 48.20698853 12.52905884 48.20698853 14.31616211 48.19897461 C17 48.3125 17 48.3125 18 49.3125 C18.09946453 51.08109193 18.13080217 52.85361451 18.1328125 54.625 C18.13410156 55.70007813 18.13539063 56.77515625 18.13671875 57.8828125 C18.13285156 59.01460937 18.12898437 60.14640625 18.125 61.3125 C18.12886719 62.44429687 18.13273438 63.57609375 18.13671875 64.7421875 C18.13542969 65.81726563 18.13414062 66.89234375 18.1328125 68 C18.13168457 68.99386719 18.13055664 69.98773437 18.12939453 71.01171875 C18 73.3125 18 73.3125 17 74.3125 C14.92737924 74.40017112 12.85179706 74.41945873 10.77734375 74.41015625 C8.88725586 74.40532227 8.88725586 74.40532227 6.95898438 74.40039062 C5.61848891 74.39203403 4.27799412 74.38356907 2.9375 74.375 C1.59310058 74.3699866 0.2486994 74.36542342 -1.09570312 74.36132812 C-4.39717941 74.34949488 -7.69856803 74.33300971 -11 74.3125 C-10.99777939 75.45033432 -10.99555878 76.58816864 -10.99327087 77.76048279 C-10.97304067 88.45880749 -10.95802845 99.15712834 -10.94818783 109.8554678 C-10.94295869 115.35620862 -10.93586049 120.85693405 -10.92456055 126.35766602 C-10.91373275 131.6614656 -10.9077234 136.96525035 -10.90512276 142.26906013 C-10.90326831 144.29735612 -10.89964733 146.32565126 -10.89426994 148.35394096 C-10.88706094 151.18446514 -10.886009 154.01492718 -10.88647461 156.84545898 C-10.88287933 157.69278091 -10.87928406 158.54010284 -10.87557983 159.4131012 C-10.88594784 165.19844784 -10.88594784 165.19844784 -12 166.3125 C-14.13353174 166.41253289 -16.27037542 166.44331048 -18.40625 166.4453125 C-19.70691406 166.44660156 -21.00757813 166.44789063 -22.34765625 166.44921875 C-23.02844238 166.44712402 -23.70922852 166.4450293 -24.41064453 166.44287109 C-26.49128515 166.4375224 -28.57170989 166.4428168 -30.65234375 166.44921875 C-32.60333984 166.44728516 -32.60333984 166.44728516 -34.59375 166.4453125 C-35.79708984 166.44418457 -37.00042969 166.44305664 -38.24023438 166.44189453 C-41 166.3125 -41 166.3125 -42 165.3125 C-42.09520906 162.48209328 -42.12553631 159.67615007 -42.11352539 156.84545898 C-42.11367142 155.95773804 -42.11381744 155.07001709 -42.1139679 154.15539551 C-42.11326843 151.20643716 -42.10547448 148.25754113 -42.09765625 145.30859375 C-42.09579219 143.26978083 -42.09436823 141.23096746 -42.09336853 139.19215393 C-42.08954241 133.81465426 -42.07971132 128.43718142 -42.06866455 123.05969238 C-42.05845245 117.57690799 -42.05387134 112.09411928 -42.04882812 106.61132812 C-42.03808914 95.84504027 -42.02101159 85.07877236 -42 74.3125 C-43.20398438 74.33570313 -44.40796875 74.35890625 -45.6484375 74.3828125 C-47.22395215 74.40156863 -48.79947348 74.41976899 -50.375 74.4375 C-51.56609375 74.46263672 -51.56609375 74.46263672 -52.78125 74.48828125 C-54.85492015 74.50585473 -56.92883241 74.41585168 -59 74.3125 C-61 72.3125 -61 72.3125 -61.24291992 69.98999023 C-61.23881104 69.04325439 -61.23470215 68.09651855 -61.23046875 67.12109375 C-61.22853516 66.09435547 -61.22660156 65.06761719 -61.22460938 64.00976562 C-61.21236328 62.93404297 -61.20011719 61.85832031 -61.1875 60.75 C-61.18685547 59.67041016 -61.18621094 58.59082031 -61.18554688 57.47851562 C-61.14014598 49.45264598 -61.14014598 49.45264598 -60 48.3125 C-58.65732587 48.22618126 -57.31025678 48.20543527 -55.96484375 48.21484375 C-55.15595703 48.21806641 -54.34707031 48.22128906 -53.51367188 48.22460938 C-52.66353516 48.23298828 -51.81339844 48.24136719 -50.9375 48.25 C-50.08349609 48.25451172 -49.22949219 48.25902344 -48.34960938 48.26367188 C-46.23304337 48.27549627 -44.11651315 48.29343231 -42 48.3125 C-42.0314209 47.44467896 -42.0314209 47.44467896 -42.06347656 46.55932617 C-42.83702569 21.95507849 -42.83702569 21.95507849 -34.375 11.4375 C-24.95527281 1.6500883 -12.96966341 -0.04012891 0 0 Z " fill="#04294F" transform="translate(677,612.6875)"/>
<path d="M0 0 C1.30066406 -0.00128906 2.60132813 -0.00257813 3.94140625 -0.00390625 C4.96258545 -0.00076416 4.96258545 -0.00076416 6.00439453 0.00244141 C8.08503515 0.0077901 10.16545989 0.0024957 12.24609375 -0.00390625 C14.19708984 -0.00197266 14.19708984 -0.00197266 16.1875 0 C17.39083984 0.00112793 18.59417969 0.00225586 19.83398438 0.00341797 C22.59375 0.1328125 22.59375 0.1328125 23.59375 1.1328125 C23.68158542 3.35136514 23.70069609 5.57269746 23.69140625 7.79296875 C23.68890869 9.00863525 23.68641113 10.22430176 23.68383789 11.47680664 C23.67473389 13.03391357 23.66562988 14.59102051 23.65625 16.1953125 C23.635625 21.1246875 23.615 26.0540625 23.59375 31.1328125 C34.15375 31.1328125 44.71375 31.1328125 55.59375 31.1328125 C55.614375 35.2371875 55.635 39.3415625 55.65625 43.5703125 C55.665354 44.86638428 55.67445801 46.16245605 55.68383789 47.49780273 C55.68633545 48.51044189 55.68883301 49.52308105 55.69140625 50.56640625 C55.69664307 51.60853271 55.70187988 52.65065918 55.70727539 53.72436523 C55.59375 56.1328125 55.59375 56.1328125 54.59375 57.1328125 C52.30223583 57.22072225 50.00802476 57.23975288 47.71484375 57.23046875 C46.68485008 57.22834633 46.68485008 57.22834633 45.63404846 57.22618103 C43.43307199 57.22056729 41.23219591 57.20801257 39.03125 57.1953125 C37.54231917 57.19029926 36.05338676 57.18573605 34.56445312 57.18164062 C30.90751925 57.17059343 27.25064442 57.15331963 23.59375 57.1328125 C23.6866099 64.07070789 23.79398702 71.00827331 23.91113281 77.94580078 C23.94925385 80.30252069 23.98413516 82.65929544 24.015625 85.01611328 C24.06164381 88.41719066 24.11957589 91.81789593 24.1796875 95.21875 C24.19123871 96.26082611 24.20278992 97.30290222 24.21469116 98.3765564 C24.27334331 110.04494304 24.27334331 110.04494304 29.07421875 120.2421875 C33.84454989 122.80471832 37.59291761 122.65704901 42.90625 122.3828125 C44.71472527 122.32189544 46.52332056 122.2644101 48.33203125 122.2109375 C49.52372925 122.15534668 49.52372925 122.15534668 50.73950195 122.09863281 C52.59375 122.1328125 52.59375 122.1328125 53.59375 123.1328125 C53.92947966 127.08252319 53.91871141 131.04566608 53.96875 135.0078125 C54.02482422 136.68037109 54.02482422 136.68037109 54.08203125 138.38671875 C54.09363281 139.45535156 54.10523438 140.52398438 54.1171875 141.625 C54.1469165 143.10009033 54.1469165 143.10009033 54.17724609 144.60498047 C53.59375 147.1328125 53.59375 147.1328125 51.37353516 148.91455078 C41.37680308 153.29569368 25.25637864 152.97210655 15.09375 149.3828125 C12.640625 148.2578125 12.640625 148.2578125 10.59375 147.1328125 C9.52125 146.5553125 8.44875 145.9778125 7.34375 145.3828125 C-0.59939966 138.88387187 -5.70352708 131.33648806 -7.40625 121.1328125 C-7.49140081 118.98662533 -7.52401182 116.83805707 -7.51977539 114.69018555 C-7.51969986 113.40923508 -7.51962433 112.12828461 -7.51954651 110.80851746 C-7.51444065 109.42052165 -7.50922467 108.03252625 -7.50390625 106.64453125 C-7.50203975 105.21678212 -7.50061694 103.78903235 -7.49961853 102.36128235 C-7.49581165 98.61467705 -7.48599707 94.8681109 -7.47491455 91.121521 C-7.46466102 87.29391001 -7.46011248 83.46629266 -7.45507812 79.63867188 C-7.44437307 72.13670096 -7.42731873 64.63476223 -7.40625 57.1328125 C-8.62183594 57.14441406 -9.83742188 57.15601563 -11.08984375 57.16796875 C-12.67447764 57.17734528 -14.25911318 57.18644563 -15.84375 57.1953125 C-16.64619141 57.20369141 -17.44863281 57.21207031 -18.27539062 57.22070312 C-20.31920221 57.2293268 -22.36308902 57.185094 -24.40625 57.1328125 C-25.40625 56.1328125 -25.40625 56.1328125 -25.51977539 53.72436523 C-25.51453857 52.68223877 -25.50930176 51.6401123 -25.50390625 50.56640625 C-25.50068359 49.44169922 -25.49746094 48.31699219 -25.49414062 47.15820312 C-25.48576172 45.97419922 -25.47738281 44.79019531 -25.46875 43.5703125 C-25.46423828 42.38244141 -25.45972656 41.19457031 -25.45507812 39.97070312 C-25.44324686 37.02471838 -25.42531076 34.07875934 -25.40625 31.1328125 C-19.46625 31.1328125 -13.52625 31.1328125 -7.40625 31.1328125 C-7.41785156 28.97878906 -7.42945313 26.82476563 -7.44140625 24.60546875 C-7.44919737 22.52710111 -7.45527381 20.44873507 -7.46118164 18.37036133 C-7.46622101 16.92211177 -7.47305253 15.47386733 -7.48168945 14.02563477 C-7.49377247 11.94806662 -7.49948211 9.87056553 -7.50390625 7.79296875 C-7.50914307 6.54136963 -7.51437988 5.28977051 -7.51977539 4.00024414 C-7.31228177 -1.24064306 -4.63964006 0.00434889 0 0 Z " fill="#04294F" transform="translate(493.40625,629.8671875)"/>
<path d="M0 0 C0.67877197 0.00008057 1.35754395 0.00016113 2.05688477 0.00024414 C4.12667451 -0.00194046 6.1959298 -0.02008804 8.265625 -0.0390625 C10.21178711 -0.04196289 10.21178711 -0.04196289 12.19726562 -0.04492188 C13.39536865 -0.04903076 14.59347168 -0.05313965 15.82788086 -0.05737305 C18.70117188 0.18554688 18.70117188 0.18554688 20.70117188 2.18554688 C20.95285416 4.20643616 20.95285416 4.20643616 20.95513916 6.74047852 C20.96077881 7.69955109 20.96641846 8.65862366 20.972229 9.64675903 C20.96818054 10.70241058 20.96413208 11.75806213 20.95996094 12.84570312 C20.96346558 13.95468964 20.96697021 15.06367615 20.97058105 16.20626831 C20.97941282 19.88692408 20.97354404 23.56738901 20.96679688 27.24804688 C20.96814311 29.79630572 20.97008329 32.34456431 20.97259521 34.89282227 C20.97554844 40.2394478 20.97143205 45.58600438 20.96191406 50.93261719 C20.9510292 57.11858959 20.95455468 63.30443016 20.96556687 69.49039936 C20.97572723 75.43525099 20.97466351 81.38006157 20.96880341 87.32492065 C20.96746542 89.85757465 20.96911981 92.39023199 20.97376251 94.92288208 C20.97881886 98.45714339 20.97112991 101.99114849 20.95996094 105.52539062 C20.9640094 106.58104218 20.96805786 107.63669373 20.972229 108.72433472 C20.96376953 110.16294357 20.96376953 110.16294357 20.95513916 111.63061523 C20.95438511 112.46684921 20.95363106 113.30308319 20.95285416 114.16465759 C20.70117188 116.18554688 20.70117188 116.18554688 18.70117188 118.18554688 C15.93554688 118.44433594 15.93554688 118.44433594 12.45117188 118.45117188 C10.57945312 118.45503906 10.57945312 118.45503906 8.66992188 118.45898438 C6.70539062 118.44738281 6.70539062 118.44738281 4.70117188 118.43554688 C3.39148438 118.44328125 2.08179688 118.45101562 0.73242188 118.45898438 C-0.51539063 118.45640625 -1.76320313 118.45382812 -3.04882812 118.45117188 C-4.77359375 118.44778809 -4.77359375 118.44778809 -6.53320312 118.44433594 C-9.29882812 118.18554688 -9.29882812 118.18554688 -11.29882812 116.18554688 C-11.54771709 114.14624691 -11.54771709 114.14624691 -11.54606628 111.58592224 C-11.55026077 110.61699036 -11.55445526 109.64805847 -11.55877686 108.64976501 C-11.55315735 107.58319168 -11.54753784 106.51661835 -11.54174805 105.41772461 C-11.54364639 104.29737823 -11.54554474 103.17703186 -11.54750061 102.0227356 C-11.55121735 98.30480032 -11.54049198 94.58705866 -11.52929688 90.86914062 C-11.52810556 88.29606652 -11.52765181 85.72299197 -11.52790833 83.1499176 C-11.52634194 77.75201506 -11.51828156 72.35418303 -11.50463867 66.95629883 C-11.48890479 60.70785307 -11.48364082 54.45946881 -11.48437423 48.21100467 C-11.48498371 42.20848586 -11.47977833 36.20599223 -11.47158241 30.20347786 C-11.46838909 27.64487899 -11.4664268 25.08627829 -11.46568871 22.52767754 C-11.46353263 18.95974466 -11.45480457 15.39189068 -11.4440918 11.82397461 C-11.44454498 10.75537704 -11.44499817 9.68677948 -11.44546509 8.58580017 C-11.4412001 7.61968811 -11.43693512 6.65357605 -11.43254089 5.65818787 C-11.43086505 4.81365775 -11.42918921 3.96912764 -11.42746258 3.0990057 C-11.0866717 -1.9703152 -3.78565748 0.01694228 0 0 Z " fill="#052950" transform="translate(580.298828125,660.814453125)"/>
<path d="M0 0 C4.09338652 -0.04939115 8.18665798 -0.08571501 12.28027344 -0.10986328 C13.67320781 -0.11992877 15.06612102 -0.13358234 16.45898438 -0.15087891 C18.4595436 -0.1751022 20.46025615 -0.18540814 22.4609375 -0.1953125 C24.26763916 -0.21102295 24.26763916 -0.21102295 26.11083984 -0.22705078 C29 0 29 0 31 2 C31.25168228 4.02088928 31.25168228 4.02088928 31.25396729 6.55493164 C31.25960693 7.51400421 31.26524658 8.47307678 31.27105713 9.46121216 C31.26700867 10.51686371 31.26296021 11.57251526 31.25878906 12.66015625 C31.2622937 13.76914276 31.26579834 14.87812927 31.26940918 16.02072144 C31.27824095 19.70137721 31.27237217 23.38184213 31.265625 27.0625 C31.26697123 29.61075884 31.26891141 32.15901743 31.27142334 34.70727539 C31.27437657 40.05390093 31.27026017 45.4004575 31.26074219 50.74707031 C31.24985732 56.93304271 31.2533828 63.11888328 31.264395 69.30485249 C31.27455536 75.24970412 31.27349164 81.1945147 31.26763153 87.13937378 C31.26629354 89.67202777 31.26794793 92.20468511 31.27259064 94.73733521 C31.27764698 98.27159652 31.26995804 101.80560161 31.25878906 105.33984375 C31.26283752 106.3954953 31.26688599 107.45114685 31.27105713 108.53878784 C31.26541748 109.49786041 31.25977783 110.45693298 31.25396729 111.44506836 C31.25321323 112.28130234 31.25245918 113.11753632 31.25168228 113.97911072 C31 116 31 116 29 118 C26.21850586 118.24291992 26.21850586 118.24291992 22.71484375 118.23046875 C21.46251953 118.22853516 20.21019531 118.22660156 18.91992188 118.22460938 C17.60572266 118.21236328 16.29152344 118.20011719 14.9375 118.1875 C13.61943359 118.18685547 12.30136719 118.18621094 10.94335938 118.18554688 C1.14009123 118.14009123 1.14009123 118.14009123 0 117 C-0.09578593 115.4818148 -0.12188147 113.95917604 -0.12025452 112.43797302 C-0.12162918 111.45214233 -0.12300385 110.46631165 -0.12442017 109.4506073 C-0.12082489 108.36016617 -0.11722961 107.26972504 -0.11352539 106.14624023 C-0.11367142 105.00492645 -0.11381744 103.86361267 -0.1139679 102.68771362 C-0.11326818 98.89465469 -0.10547307 95.10164416 -0.09765625 91.30859375 C-0.09579228 88.68685432 -0.09436828 86.06511454 -0.09336853 83.44337463 C-0.09025551 77.23498045 -0.08204252 71.02660379 -0.07201904 64.81821734 C-0.06085699 57.75182559 -0.05534722 50.68543301 -0.05032361 43.61903465 C-0.03985988 29.07934737 -0.022261 14.53967393 0 0 Z " fill="#062B51" transform="translate(307,661)"/>
<path d="M0 0 C0.89858734 -0.00708481 1.79717468 -0.01416962 2.72299194 -0.02146912 C3.70128464 -0.0189917 4.67957733 -0.01651428 5.68751526 -0.01396179 C6.72369995 -0.01907272 7.75988464 -0.02418365 8.82746887 -0.02944946 C12.25556704 -0.04335913 15.68346448 -0.04238767 19.11158752 -0.04008484 C21.49285965 -0.04397093 23.87413108 -0.04830541 26.25540161 -0.05307007 C31.2479324 -0.06053518 36.24039247 -0.0602388 41.23292542 -0.05497742 C47.63335688 -0.04918158 54.03349908 -0.06611539 60.43388271 -0.08932209 C65.35206802 -0.10404759 70.27018347 -0.10493274 75.18838692 -0.10181236 C77.54831071 -0.10232614 79.90823835 -0.10757442 82.26814079 -0.11762428 C85.56697818 -0.1299485 88.86524956 -0.12322079 92.16407776 -0.11161804 C93.14034622 -0.11926178 94.11661469 -0.12690552 95.12246704 -0.13478088 C101.21420574 -0.08737793 104.67081498 0.73270853 109.30299377 4.88569641 C111.17791889 8.63554665 111.26308819 12.16381958 110.49049377 16.26069641 C108.55707828 19.8312185 106.40693478 21.95521608 102.49049377 23.26069641 C101.01942287 23.35954486 99.54435849 23.40414252 98.07000732 23.41459656 C97.16582565 23.42319702 96.26164398 23.43179749 95.33006287 23.44065857 C94.3403952 23.44491852 93.35072754 23.44917847 92.33106995 23.4535675 C91.286884 23.461745 90.24269806 23.46992249 89.16687012 23.47834778 C85.7057401 23.50319389 82.24465104 23.51971472 78.78346252 23.53413391 C77.60218592 23.53945759 76.42090931 23.54478127 75.20383644 23.55026627 C68.95295994 23.57699277 62.70210339 23.59637045 56.45118713 23.61079407 C49.99129077 23.62745245 43.53190352 23.67224235 37.07219982 23.72316551 C32.10765996 23.75679753 27.14324164 23.76836703 22.1785984 23.77402115 C19.79713863 23.78074333 17.41568711 23.79599028 15.034338 23.81991196 C11.70183473 23.85148184 8.37071435 23.85161206 5.0381012 23.8441925 C4.05450623 23.86059784 3.07091125 23.87700317 2.05751038 23.89390564 C-2.38795695 23.85338639 -5.53762463 23.7306598 -9.10623169 20.91172791 C-11.94177421 17.78386531 -12.42889854 16.11513787 -12.82200623 11.94819641 C-12.45001251 7.55867061 -11.31602987 5.61293298 -8.50950623 2.26069641 C-5.59658155 0.45588808 -3.40228031 0.00896736 0 0 Z " fill="#FDFEFE" transform="translate(496.50950622558594,456.7393035888672)"/>
<path d="M0 0 C0.89714218 -0.00852997 1.79428436 -0.01705994 2.71861267 -0.02584839 C4.18369514 -0.02448883 4.18369514 -0.02448883 5.67837524 -0.02310181 C6.71295364 -0.02981903 7.74753204 -0.03653625 8.8134613 -0.04345703 C12.23674306 -0.06246954 15.65982911 -0.06636287 19.0831604 -0.06851196 C21.46203696 -0.07493752 23.84091272 -0.08166569 26.2197876 -0.08868408 C31.20811801 -0.10066492 36.19637912 -0.10436406 41.1847229 -0.10317993 C47.57615863 -0.10297668 53.96715004 -0.13028248 60.35848045 -0.16472435 C65.27242066 -0.18696329 70.18625342 -0.19101839 75.1002388 -0.18996048 C77.45655474 -0.19232082 79.81287344 -0.20116862 82.16913986 -0.21662521 C85.4655035 -0.23622402 88.76090227 -0.23047051 92.05728149 -0.21841431 C93.02995468 -0.22965332 94.00262787 -0.24089233 95.004776 -0.25247192 C100.66459224 -0.19987885 104.05850268 0.39486554 108.4972229 4.26742554 C111.18130935 8.29355521 111.30332696 11.53559472 110.4972229 16.26742554 C108.57365417 19.84082437 106.4089975 21.96350067 102.4972229 23.26742554 C101.02615199 23.36627399 99.55108761 23.41087164 98.07673645 23.42132568 C97.17255478 23.42992615 96.26837311 23.43852661 95.33679199 23.4473877 C94.34712433 23.45164764 93.35745667 23.45590759 92.33779907 23.46029663 C91.29361313 23.46847412 90.24942719 23.47665161 89.17359924 23.4850769 C85.71246923 23.50992302 82.25138017 23.52644384 78.79019165 23.54086304 C77.60891504 23.54618671 76.42763844 23.55151039 75.21056557 23.55699539 C68.95968906 23.58372189 62.70883251 23.60309957 56.45791626 23.61752319 C49.9980199 23.63418157 43.53863264 23.67897148 37.07892895 23.72989464 C32.11438908 23.76352666 27.14997076 23.77509616 22.18532753 23.78075027 C19.80386775 23.78747246 17.42241624 23.80271941 15.04106712 23.82664108 C11.70856386 23.85821097 8.37744347 23.85834119 5.04483032 23.85092163 C4.06123535 23.86732697 3.07764038 23.8837323 2.0642395 23.90063477 C-2.38122783 23.86011551 -5.53089551 23.73738892 -9.09950256 20.91845703 C-11.93504508 17.79059444 -12.42216942 16.12186699 -12.8152771 11.95492554 C-12.44328339 7.56539974 -11.30930074 5.61966211 -8.5027771 2.26742554 C-5.59343078 0.4659002 -3.397674 0.01464547 0 0 Z " fill="#FDFEFE" transform="translate(496.5027770996094,296.7325744628906)"/>
<path d="M0 0 C0.89858734 -0.00708481 1.79717468 -0.01416962 2.72299194 -0.02146912 C3.70128464 -0.0189917 4.67957733 -0.01651428 5.68751526 -0.01396179 C6.72369995 -0.01907272 7.75988464 -0.02418365 8.82746887 -0.02944946 C12.25556704 -0.04335913 15.68346448 -0.04238767 19.11158752 -0.04008484 C21.49285965 -0.04397093 23.87413108 -0.04830541 26.25540161 -0.05307007 C31.2479324 -0.06053518 36.24039247 -0.0602388 41.23292542 -0.05497742 C47.63335688 -0.04918158 54.03349908 -0.06611539 60.43388271 -0.08932209 C65.35206802 -0.10404759 70.27018347 -0.10493274 75.18838692 -0.10181236 C77.54831071 -0.10232614 79.90823835 -0.10757442 82.26814079 -0.11762428 C85.56697818 -0.1299485 88.86524956 -0.12322079 92.16407776 -0.11161804 C93.14034622 -0.11926178 94.11661469 -0.12690552 95.12246704 -0.13478088 C101.21420574 -0.08737793 104.67081498 0.73270853 109.30299377 4.88569641 C111.17791889 8.63554665 111.26308819 12.16381958 110.49049377 16.26069641 C108.55707828 19.8312185 106.40693478 21.95521608 102.49049377 23.26069641 C101.03203459 23.35744044 99.5696135 23.39984389 98.10797119 23.40786743 C97.21220367 23.41502274 96.31643616 23.42217804 95.39352417 23.42955017 C93.92304878 23.43358353 93.92304878 23.43358353 92.42286682 23.43769836 C90.87121826 23.44755516 90.87121826 23.44755516 89.28822327 23.45761108 C85.85955231 23.47734773 82.43092513 23.48900684 79.00221252 23.49897766 C77.83196848 23.50305319 76.66172443 23.50712872 75.45601845 23.51132774 C69.26349183 23.53218889 63.07098739 23.54649109 56.87843323 23.55586243 C50.47914834 23.56693385 44.08021049 23.6013425 37.68104839 23.64103413 C32.76283109 23.66716303 27.84469701 23.67555092 22.9264164 23.67914391 C20.56730108 23.68401857 18.2081897 23.69565743 15.84914207 23.7141819 C12.54791512 23.73849583 9.24759316 23.73762221 5.94630432 23.73066711 C4.48493797 23.7498822 4.48493797 23.7498822 2.99404907 23.76948547 C-2.82487513 23.72480029 -6.04818118 23.08276627 -10.50950623 19.26069641 C-13.0998697 15.84612637 -12.94059364 12.42787471 -12.50950623 8.26069641 C-9.4400491 2.45065257 -6.57072248 0.01731839 0 0 Z " fill="#FDFEFE" transform="translate(496.50950622558594,376.7393035888672)"/>
<path d="M0 0 C2.8100346 1.79363911 4.50940468 3.01880935 6 6 C6.52515356 9.28220978 6.74955385 11.80180808 4.9296875 14.7109375 C3.03322367 16.8933004 1.02688464 18.93755598 -1 21 C-2.08043654 22.16070925 -3.15694384 23.32508281 -4.23046875 24.4921875 C-10.29138056 31.07181465 -16.45182835 37.5105371 -22.82421875 43.7890625 C-24.89688494 45.89521881 -26.83264538 48.06514316 -28.75 50.3125 C-32.37987092 54.51192913 -35.68580137 57.99382668 -40.875 60.25 C-44.47503191 59.96199745 -45.05482631 59.37430103 -47.6484375 57.01953125 C-48.35178223 56.38128418 -49.05512695 55.74303711 -49.77978516 55.08544922 C-53.49644068 51.59439231 -57.14285167 48.04144483 -60.75 44.4375 C-61.49121094 43.70853516 -62.23242188 42.97957031 -62.99609375 42.22851562 C-72.48073427 32.76941722 -72.48073427 32.76941722 -73.5625 27 C-72.7685607 22.76565705 -71.15929874 20.89042225 -68 18 C-64.11722515 16.79986959 -62.00354614 16.60981003 -58.20703125 18.0859375 C-54.22277306 20.46387479 -51.31747536 23.35418014 -48.125 26.6875 C-47.53203125 27.29400391 -46.9390625 27.90050781 -46.328125 28.52539062 C-44.87844078 30.01014785 -43.43823532 31.50414991 -42 33 C-33.38775004 25.99002911 -25.32562894 18.01753715 -18.125 9.5625 C-8.65550989 -1.39604998 -8.65550989 -1.39604998 0 0 Z " fill="#74E960" transform="translate(460,358)"/>
<path d="M0 0 C3.62763593 2.62424727 4.83514312 3.99254127 5.5625 8.4375 C4.50733591 15.12020588 -0.11924765 19.37086659 -4.8125 23.875 C-8.14525845 27.13575287 -11.42524028 30.37274038 -14.4375 33.9375 C-18.13938561 38.29587764 -22.22250828 42.25197337 -26.28808594 46.26635742 C-29.21373874 49.16852644 -32.03960637 52.08687584 -34.6875 55.25 C-37 58 -37 58 -39 59 C-46.01737567 59.57519473 -46.01737567 59.57519473 -49.5625 57.5 C-52.10409599 54.89323489 -54.47493973 52.19132368 -56.83203125 49.41796875 C-60.00127753 45.88325984 -63.40071923 42.58808482 -66.82446289 39.30078125 C-70.61099778 35.60216234 -73.59670553 32.36935502 -74.5 27.0625 C-73.79704246 22.75688506 -72.19584949 20.9238623 -69 18 C-65.33006916 16.88591385 -63.21751487 16.42339159 -59.70703125 18.0859375 C-56.14352751 20.60558661 -53.22238677 23.5646455 -50.1875 26.6875 C-49.59001953 27.29400391 -48.99253906 27.90050781 -48.37695312 28.52539062 C-46.91335815 30.01240312 -45.45603898 31.50558811 -44 33 C-39.91871585 31.38307119 -37.19396488 28.45721832 -34.1875 25.375 C-33.6527002 24.83375488 -33.11790039 24.29250977 -32.56689453 23.73486328 C-29.16936649 20.27138383 -25.93822882 16.70324795 -22.78515625 13.015625 C-9.12987013 -2.4025974 -9.12987013 -2.4025974 0 0 Z " fill="#74E960" transform="translate(461,438)"/>
<path d="M0 0 C3.49406769 1.66762322 4.82670681 2.74006022 7 6 C7.66058731 11.83518795 6.45887188 14.37867365 3 19 C0.97838182 21.21325217 -1.15396894 23.29604612 -3.3125 25.375 C-8.57440173 30.52823386 -8.57440173 30.52823386 -13.5 36 C-17.20054946 40.37168186 -21.29138615 44.34383565 -25.3828125 48.34570312 C-27.81892435 50.74384201 -30.0718905 53.09021303 -32.20703125 55.76953125 C-34.83193584 59.03493544 -36.52998909 59.92830342 -40.6875 60.5625 C-46.33999679 60.38714882 -49.29547605 56.92861614 -53 53 C-55.28279419 50.52463266 -57.53189131 48.02618702 -59.75390625 45.49609375 C-62.49512664 42.44976361 -65.40025539 39.60985852 -68.37109375 36.7890625 C-71.18782983 33.69538114 -72.01411228 31.77617543 -71.9375 27.5625 C-70.7830505 23.17559189 -69.74190139 21.5725572 -66 19 C-62.87084846 18.26434238 -60.13519882 18.2949142 -57 19 C-53.84509917 21.08777022 -51.45051849 23.69088567 -48.9375 26.5 C-48.26267578 27.21542969 -47.58785156 27.93085938 -46.89257812 28.66796875 C-45.23940942 30.42665887 -43.610905 32.20266979 -42 34 C-34.91339175 30.6801643 -29.7050099 24.07053036 -24.6875 18.1875 C-21.36206808 14.30250021 -17.79567066 10.68247975 -14.1875 7.0625 C-13.61153076 6.48201904 -13.03556152 5.90153809 -12.44213867 5.3034668 C-8.09444199 0.97121715 -6.20025097 -0.48629419 0 0 Z " fill="#76EA5F" transform="translate(459,277)"/>
<path d="M0 0 C5.00920691 1.79590537 8.9876572 4.98380216 11.375 9.84375 C13.114312 15.84437641 13.01979022 21.88487953 10.3125 27.5 C6.57084878 31.54502834 2.50153912 35.50978452 -3.1484375 36.30078125 C-8.19847211 36.32736038 -11.71697181 35.95053053 -16 33 C-20.43848045 28.59345106 -23.73929762 24.60702382 -24.375 18.25 C-24.21407114 12.84882529 -22.23670915 8.30517984 -18.46875 4.421875 C-12.56516411 -0.61353649 -7.57984851 -0.82637446 0 0 Z " fill="#062950" transform="translate(327,613)"/>
<path d="M0 0 C4.41854291 3.11306432 8.02390999 6.75922996 9.75 11.9375 C10.28385142 17.90226294 10.30270149 22.89495595 6.75 27.9375 C2.20644246 32.50254008 -1.34172934 35.04328487 -7.9375 35.3125 C-13.50119796 35.24752251 -17.10572042 33.60322536 -21.25 29.9375 C-25.70662234 24.33815399 -26.84221613 20.04409359 -26.25 12.9375 C-24.29066256 7.04829146 -21.2822952 3.47081365 -16.25 -0.0625 C-10.88620867 -1.85043044 -5.36227662 -1.75305197 0 0 Z " fill="#05284F" transform="translate(593.25,614.0625)"/>
<path d="M0 0 C2.29824223 1.57292541 4.19046211 3.31539822 6.1796875 5.26171875 C8.02829719 7.16401578 8.02829719 7.16401578 10.8125 8.625 C13.51757261 10.32533136 14.55726338 12.19046026 16 15 C16.61875 14.690625 17.2375 14.38125 17.875 14.0625 C19.25 13.375 20.625 12.6875 22 12 C20.60840337 15.47899158 19.36748512 16.48052501 16 18 C15.5875 17.55084229 15.175 17.10168457 14.75 16.63891602 C12.85231743 14.5948302 10.92693502 12.57901739 9 10.5625 C8.02740234 9.50192383 8.02740234 9.50192383 7.03515625 8.41992188 C2.39564835 3.61963895 -0.31548401 2.16286427 -7 2 C-7.99 1.67 -8.98 1.34 -10 1 C-6.69842153 -0.65078924 -3.53964477 -0.7776021 0 0 Z " fill="#0878F6" transform="translate(401,454)"/>
<path d="M0 0 C0.33 0 0.66 0 1 0 C2.51708428 14.78132118 2.51708428 14.78132118 0 21 C-0.99 21 -1.98 21 -3 21 C-2.125 15.25 -2.125 15.25 -1 13 C-1.99 12.67 -2.98 12.34 -4 12 C-2.68 8.04 -1.36 4.08 0 0 Z " fill="#198FF6" transform="translate(652,494)"/>
<path d="M0 0 C0.66 0.33 1.32 0.66 2 1 C1 4 1 4 -1.07421875 5.38671875 C-5.92469294 7.80108034 -9.46331468 9.52730336 -15 9 C-15.721875 9.20625 -16.44375 9.4125 -17.1875 9.625 C-17.785625 9.74875 -18.38375 9.8725 -19 10 C-19.99 9.34 -20.98 8.68 -22 8 C-21.16597656 7.84144531 -20.33195313 7.68289063 -19.47265625 7.51953125 C-12.85357579 6.1471904 -7.4068756 4.57067293 -1.70703125 0.890625 C-0.86205078 0.44976563 -0.86205078 0.44976563 0 0 Z " fill="#EFA621" transform="translate(635,534)"/>
<path d="M0 0 C-1.52951775 3.78083039 -3.81890209 5.85198638 -6.875 8.5 C-10.024415 11.24516173 -13.07926589 14.01134184 -16 17 C-15.41787177 13.73511631 -14.47004122 12.09350894 -12.12890625 9.765625 C-11.55462891 9.19199219 -10.98035156 8.61835938 -10.38867188 8.02734375 C-9.4847168 7.14755859 -9.4847168 7.14755859 -8.5625 6.25 C-7.96373047 5.64800781 -7.36496094 5.04601562 -6.74804688 4.42578125 C-2.26706881 0 -2.26706881 0 0 0 Z " fill="#0677FB" transform="translate(451,469)"/>
<path d="M0 0 C0.33 0.99 0.66 1.98 1 3 C-0.91460039 4.77311263 -2.83157493 6.54353362 -4.75 8.3125 C-5.55824219 9.06176758 -5.55824219 9.06176758 -6.3828125 9.82617188 C-9.15603952 12.37956993 -11.92190229 14.81096449 -15 17 C-13.67879172 14.06769807 -12.25361803 12.01335101 -9.9609375 9.765625 C-9.38085938 9.19199219 -8.80078125 8.61835938 -8.203125 8.02734375 C-7.59984375 7.44082031 -6.9965625 6.85429687 -6.375 6.25 C-5.76398438 5.64800781 -5.15296875 5.04601562 -4.5234375 4.42578125 C-3.02011376 2.94594695 -1.51065144 1.47235324 0 0 Z " fill="#82F64D" transform="translate(436,374)"/>
<path d="M0 0 C0.66 0 1.32 0 2 0 C1.690625 0.680625 1.38125 1.36125 1.0625 2.0625 C-0.13370649 5.36965912 -0.59005397 8.51545878 -1 12 C-3.09749995 9.64031256 -3.96905704 8.45383006 -4.1875 5.25 C-4.125625 4.5075 -4.06375 3.765 -4 3 C-2.68 2.67 -1.36 2.34 0 2 C0 1.34 0 0.68 0 0 Z " fill="#087EF7" transform="translate(388,457)"/>
<path d="M0 0 C0 3 0 3 -1.75 5.04296875 C-2.4925 5.75066406 -3.235 6.45835937 -4 7.1875 C-4.7425 7.90292969 -5.485 8.61835938 -6.25 9.35546875 C-7.11625 10.16951172 -7.11625 10.16951172 -8 11 C-8.66 10.01 -9.32 9.02 -10 8 C-9.67 7.01 -9.34 6.02 -9 5 C-8.2575 4.9175 -7.515 4.835 -6.75 4.75 C-3.48778646 3.8603054 -2.19045122 2.51496251 0 0 Z " fill="#067BFB" transform="translate(442,445)"/>
<path d="M0 0 C4.52615993 3.67832017 8.39424999 7.41086363 12 12 C11.01 12.495 11.01 12.495 10 13 C9.1028125 11.7934375 9.1028125 11.7934375 8.1875 10.5625 C6.19052724 7.77672016 6.19052724 7.77672016 3 7 C0 2.66666667 0 2.66666667 0 0 Z " fill="#0E7FED" transform="translate(397,480)"/>
<path d="M0 0 C0 3 0 3 -1.75 5.04296875 C-2.4925 5.75066406 -3.235 6.45835937 -4 7.1875 C-4.7425 7.90292969 -5.485 8.61835938 -6.25 9.35546875 C-7.11625 10.16951172 -7.11625 10.16951172 -8 11 C-8.66 9.68 -9.32 8.36 -10 7 C-9.01 7 -8.02 7 -7 7 C-6.67 6.34 -6.34 5.68 -6 5 C-4.07286182 3.23835014 -2.03176334 1.64270227 0 0 Z " fill="#0678FD" transform="translate(443,284)"/>
<path d="M0 0 C0.66 0.33 1.32 0.66 2 1 C0.35 2.98 -1.3 4.96 -3 7 C-4.32 6.67 -5.64 6.34 -7 6 C-4.69 4.02 -2.38 2.04 0 0 Z " fill="#061B41" transform="translate(649,619)"/>
<path d="M0 0 C0 3 0 3 -1.5 4.6875 C-1.995 5.120625 -2.49 5.55375 -3 6 C-4.32 5.34 -5.64 4.68 -7 4 C-6.67 3.01 -6.34 2.02 -6 1 C-4.7934375 1.0309375 -4.7934375 1.0309375 -3.5625 1.0625 C-1.06645115 1.29633621 -1.06645115 1.29633621 0 0 Z " fill="#077CF9" transform="translate(422,306)"/>
<path d="M0 0 C0.33 0.66 0.66 1.32 1 2 C1.66 2 2.32 2 3 2 C3 2.66 3 3.32 3 4 C2.01 4 1.02 4 0 4 C0.33 5.65 0.66 7.3 1 9 C-0.32 9 -1.64 9 -3 9 C-2.01 6.03 -1.02 3.06 0 0 Z " fill="#F9A912" transform="translate(653,510)"/>
<path d="M0 0 C0.33 0.66 0.66 1.32 1 2 C-0.3125 3.5 -0.3125 3.5 -2 5 C-2.99 5 -3.98 5 -5 5 C-5 4.34 -5 3.68 -5 3 C-5.66 2.67 -6.32 2.34 -7 2 C-4.69 1.34 -2.38 0.68 0 0 Z " fill="#182F53" transform="translate(422,754)"/>
<path d="M0 0 C0.66 0.33 1.32 0.66 2 1 C-2.625 5.875 -2.625 5.875 -6 7 C-4.60667426 3.63279613 -3.0210714 2.0140476 0 0 Z " fill="#7EF152" transform="translate(451,359)"/>
<path d="M0 0 C0 3.90838866 -1.50567876 5.11594107 -4 8 C-4.66 7.67 -5.32 7.34 -6 7 C-4.02 4.69 -2.04 2.38 0 0 Z " fill="#1185E8" transform="translate(439,399)"/>
</svg>
